<svg id="icon" enable-background="new 0 0 32 32" viewBox="0 0 32 32" xmlns="http://www.w3.org/2000/svg"><path d="m3.254 9.254-.508-.508 1.245-1.246-1.245-1.246.509-.509 1.754 1.755zm-.254-7.254c-.276 0-.5.224-.5.5s.224.5.5.5.5-.224.5-.5-.224-.5-.5-.5zm2.5.5c0 .276-.224.5-.5.5s-.5-.224-.5-.5.224-.5.5-.5.5.224.5.5zm2 0c0 .276-.224.5-.5.5s-.5-.224-.5-.5.224-.5.5-.5.5.224.5.5zm11 4c0 .276-.224.5-.5.5s-.5-.224-.5-.5.224-.5.5-.5.5.224.5.5zm2 0c0 .276-.224.5-.5.5s-.5-.224-.5-.5.224-.5.5-.5.5.224.5.5zm2 0c0 .276-.224.5-.5.5s-.5-.224-.5-.5.224-.5.5-.5.5.224.5.5zm-17 18c0 .276-.224.5-.5.5s-.5-.224-.5-.5.224-.5.5-.5.5.224.5.5zm7.5-10.14h-12c-.199 0-.36-.161-.36-.36v-13c0-.199.161-.36.36-.36h12c.199 0 .36.161.36.36v13c0 .199-.161.36-.36.36zm-.36-10h-11.28v9.28h11.28zm0-3h-11.28v2.281h11.28zm18.72 3.64v17c0 .199-.161.36-.36.36h-11.309c-.301.471-.69.885-1.152 1.215 2.875 1.05 4.819 3.778 4.819 6.902l.002.521-.721.002-.002-.522c0-3.078-2.09-5.729-5.083-6.45-.15-.035-.26-.163-.274-.316s.07-.299.211-.361c1.315-.592 2.165-1.9 2.165-3.334 0-2.017-1.64-3.657-3.656-3.657-2.018 0-3.66 1.64-3.66 3.657 0 1.434.85 2.742 2.166 3.334.141.062.225.208.211.361s-.125.281-.274.316c-2.993.721-5.084 3.372-5.084 6.449l.001.521-.72.002-.001-.522c0-3.125 1.943-5.854 4.819-6.903-1.138-.812-1.838-2.134-1.838-3.559 0-2.292 1.772-4.178 4.02-4.362v-10.654c0-.199.161-.36.36-.36h15c.199 0 .36.161.36.36zm-.72 3.36h-14.28v7.295c2.246.184 4.017 2.07 4.017 4.362 0 .566-.11 1.115-.315 1.623h10.578zm0-3h-14.28v2.28h14.28zm-8.64 6.28h-4v.72h4zm1.64 5.86c0-1.577 1.283-2.86 2.86-2.86s2.86 1.283 2.86 2.86-1.283 2.86-2.86 2.86-2.86-1.283-2.86-2.86zm4.602-1.234-1.383 1.383-.004 1.955c1.01-.171 1.784-1.046 1.784-2.104.001-.46-.149-.885-.397-1.234zm-3.882 1.234c0 1.055.769 1.928 1.774 2.103l.006-2.253 1.592-1.593c-.349-.248-.773-.397-1.233-.397-1.179 0-2.139.96-2.139 2.14zm-16.36-7.86h-3v.72h3zm-4.5 11.72h3v-.72h-3zm0-2h3v-.72h-3zm18.5-5.72h-4v.72h4zm7-2h-4v.72h4zm0-2h-4v.72h4zm-7 0h-4v.72h4zm-13.64 7.944v7.832c0 .521-.423.944-.944.944h-4.832c-.521 0-.944-.424-.944-.944v-7.832c0-.521.423-.944.944-.944h4.832c.521 0 .944.423.944.944zm-.72 5.776h-5.28v2.056c0 .123.101.224.224.224h4.832c.124 0 .224-.101.224-.224zm0-5.776c0-.123-.101-.224-.224-.224h-4.832c-.124 0-.224.101-.224.224v5.056h5.28z"/><path d="m0 0h32v32h-32z" fill="none"/></svg>