<svg id="icon" enable-background="new 0 0 32 32" viewBox="0 0 32 32" xmlns="http://www.w3.org/2000/svg"><path d="m9.002 31.36c-2.404 0-4.36-1.956-4.36-4.36s1.956-4.36 4.36-4.36c.731 0 1.42.182 2.026.5l2.125-3.338.607.387-2.125 3.339c1.048.797 1.727 2.057 1.727 3.473 0 2.403-1.955 4.359-4.36 4.359zm0-8c-2.007 0-3.64 1.633-3.64 3.64s1.633 3.64 3.64 3.64 3.64-1.633 3.64-3.64-1.632-3.64-3.64-3.64zm7 7.995c-.861 0-1.722-.071-2.557-.212l.119-.711c.796.135 1.617.202 2.438.202 4.648 0 8.917-2.134 11.712-5.854l.576.432c-2.932 3.904-7.411 6.143-12.288 6.143zm14.998-6.495c-.062 0-.126-.017-.182-.05l-5.995-3.505c-.11-.064-.179-.183-.179-.311s.068-.246.179-.311l5.995-3.495c.113-.065.249-.065.361-.002.111.064.181.184.181.312v7c0 .129-.069.248-.182.312-.054.034-.116.05-.178.05zm-5.281-3.865 4.921 2.877v-5.745zm-22.374 3.704c-.554-.803-1.034-1.665-1.425-2.56l.66-.289c.373.854.829 1.675 1.357 2.44zm-.219-4.222c-.092 0-.184-.035-.254-.105l-2.126-2.116c-.068-.068-.106-.16-.106-.256 0-.095.038-.187.105-.255l2.126-2.125c.141-.141.368-.141.509 0l2.122 2.121c.068.067.105.159.105.255s-.037.187-.105.254l-2.122 2.121c-.07.07-.162.106-.254.106zm-1.616-2.478 1.616 1.608 1.613-1.612-1.612-1.612zm7.251 2.177c-.732-1.266-1.119-2.711-1.119-4.181 0-3.819 2.58-7.149 6.274-8.098l.179.697c-3.375.867-5.733 3.91-5.733 7.4 0 1.343.354 2.664 1.022 3.819zm7.241-.821c-1.853 0-3.36-1.508-3.36-3.36 0-1.732 1.317-3.162 3.002-3.341v-5.659h.72v5.659c1.683.182 2.998 1.61 2.998 3.341 0 1.853-1.508 3.36-3.36 3.36zm0-6c-1.456 0-2.64 1.185-2.64 2.64 0 1.456 1.185 2.64 2.64 2.64s2.639-1.184 2.639-2.64c.001-1.455-1.183-2.64-2.639-2.64zm14.639 1.664c-.432-6.56-5.246-12.057-11.707-13.37l.143-.706c6.779 1.377 11.83 7.146 12.283 14.029zm-6.636-.664c-.062 0-.124-.016-.18-.048l-2.599-1.5c-.111-.064-.181-.184-.181-.312v-3c0-.128.069-.248.181-.312l2.599-1.5c.111-.063.248-.064.359 0l2.598 1.5c.111.064.181.183.181.312v3c0 .128-.069.248-.181.312l-2.598 1.5c-.055.032-.117.048-.179.048zm-2.238-2.068 2.238 1.292 2.237-1.292v-2.584l-2.237-1.292-2.238 1.292zm-5.769-7.927c-1.024 0-1.857-.836-1.857-1.865 0-1.023.833-1.855 1.857-1.855 1.027 0 1.863.832 1.863 1.855-.001 1.028-.837 1.865-1.863 1.865zm0-3c-.627 0-1.138.509-1.138 1.135 0 .631.51 1.145 1.138 1.145.63 0 1.142-.514 1.142-1.145 0-.626-.513-1.135-1.142-1.135zm-14.963 13.988c-.008 0-.017 0-.025-.001-.198-.015-.347-.177-.333-.375 0 0 .001-.021.001-.022.016-.198.185-.353.387-.331.198.015.346.188.331.387-.015.188-.174.342-.361.342zm.267-2.351h.009zm.534-1.947h.009zm.791-1.508c-.054 0-.108-.012-.159-.039-.175-.09-.249-.295-.16-.471.001-.003.012-.024.014-.028.094-.175.311-.24.488-.146.175.094.24.312.146.488-.066.123-.196.196-.329.196zm2.299-3.311c-.088 0-.176-.031-.244-.095-.142-.134-.157-.35-.027-.495.005-.004.023-.023.028-.028.141-.141.368-.141.509 0s.141.368 0 .509c-.072.072-.17.109-.266.109zm-1.259 1.572c-.088 0-.176-.031-.244-.095-.142-.134-.157-.35-.027-.495.004-.005.022-.024.027-.028.141-.141.368-.141.509 0s.141.368 0 .509c-.071.072-.169.109-.265.109zm-1.836 3.598c-.088 0-.176-.031-.244-.095-.142-.134-.157-.35-.027-.495.004-.005.022-.024.027-.028.141-.141.368-.141.509 0s.141.368 0 .509c-.072.071-.169.109-.265.109zm-.535 1.947c-.088 0-.176-.031-.244-.095-.142-.134-.157-.35-.027-.495.004-.005.022-.024.027-.028.141-.141.368-.141.509 0s.141.368 0 .509c-.071.072-.169.109-.265.109zm15.114 11.002c-.088 0-.176-.031-.244-.095-.142-.134-.157-.35-.027-.495.004-.005.022-.024.027-.028.141-.141.368-.141.509 0s.141.368 0 .509c-.072.072-.169.109-.265.109zm2.007-.367c-.088 0-.176-.031-.244-.095-.142-.134-.157-.35-.027-.495.004-.005.022-.024.027-.028.141-.141.368-.141.509 0s.141.368 0 .509c-.072.072-.169.109-.265.109zm3.38-2.1c-.088 0-.176-.031-.244-.095-.142-.134-.157-.35-.027-.495.004-.005.022-.024.027-.028.141-.141.368-.141.509 0s.141.368 0 .509c-.072.072-.169.109-.265.109zm1.945-3.497c-.088 0-.176-.031-.244-.095-.142-.134-.157-.35-.027-.495.004-.005.022-.024.027-.028.141-.141.368-.141.509 0s.141.368 0 .509c-.071.072-.168.109-.265.109zm-17.367-13.531c-.099 0-.197-.042-.269-.123-.133-.147-.114-.38.034-.513.009-.008.034-.029.044-.036.161-.117.386-.081.503.079.117.161.082.386-.079.503-.067.061-.15.09-.233.09zm3.425-2.163c-.14 0-.275-.078-.334-.211-.077-.176-.012-.378.159-.463.01-.005.039-.019.05-.022.186-.071.394.021.465.207s-.021.394-.207.465c-.042.016-.088.024-.133.024zm-1.772.951c-.14 0-.275-.078-.334-.211-.078-.176-.013-.378.159-.463.01-.005.039-.019.05-.022.186-.071.394.021.465.207s-.021.394-.207.465c-.043.016-.088.024-.133.024zm3.662-1.66c-.155 0-.303-.097-.351-.251-.059-.19.039-.389.229-.447l.019-.006c.187-.058.391.048.45.238.058.19-.048.392-.238.45-.036.011-.072.016-.109.016zm2.754 22.221c-.019 0-.037-.002-.056-.005-.015-.002-.049-.009-.064-.014-.191-.054-.302-.254-.247-.444.054-.191.252-.304.445-.247.196.029.319.211.289.407-.028.178-.191.303-.367.303zm5.799-1.063c-.122 0-.241-.062-.309-.175-.103-.171-.047-.392.123-.494.166-.102.393-.055.498.11.104.166.066.379-.097.487-.004.003-.025.017-.03.02-.058.035-.121.052-.185.052zm2.752-2.898c-.069 0-.139-.02-.199-.061-.166-.11-.211-.334-.101-.499.089-.18.303-.237.477-.151.178.09.244.316.155.494-.007.014-.024.044-.032.056-.069.105-.184.161-.3.161zm1.007-3.868c-.199 0-.36-.161-.36-.36s.161-.37.36-.37.36.151.36.35v.02c0 .199-.161.36-.36.36z"/><path d="m0 0h32v32h-32z" fill="none"/></svg>